<?xml version="1.0" encoding="UTF-8"?><svg id="Layer_2" xmlns="http://www.w3.org/2000/svg" viewBox="0 0 20.91 19.72"><defs><style>.cls-1{fill:#333;}</style></defs><g id="Layer_1-2"><g><path class="cls-1" d="M9.62,.02c.5-.02,1.01-.02,1.49,0,1.13,.06,2.24,.31,3.29,.73,2.35,.94,4.29,2.79,5.42,5.05,.69,1.4,1.09,2.97,1.09,4.54,.04,2.18-.65,4.38-1.93,6.16-.75,1.05-1.68,1.97-2.76,2.66h-.02c-.36-.44-.61-.94-.75-1.51-.1-.34-.17-.67-.23-1.01-.08-.21-.34-.21-.48-.34-.25-.19-.44-.5-.44-.84,.04-.02,.08-.02,.13,.02,.08,.1,.15,.25,.27,.34,.31,.27,.73,.38,1.15,.36,.29-.04,.61,0,.88-.1,.52-.19,.92-.59,1.36-.92,.17-.1,.29-.23,.44-.36,0-.02,.02-.04,.02-.04-.1-.02-.19,.02-.29,.04-.27,.04-.52,.08-.8,.13-.4,.06-.8,.08-1.19,.06-.15-.02-.29-.02-.42-.06-.31-.1-.52-.31-.71-.52-.42-.48-.71-1.03-1.07-1.53-.19-.25-.38-.48-.67-.61-.19-.08-.38-.13-.57-.15-.08,0-.13-.08-.19-.13-.15-.15-.36-.19-.54-.25-.1-.04-.23-.06-.36-.06-.57-.08-1.13,0-1.68-.15-.23-.06-.42-.21-.63-.34-.27-.19-.54-.4-.82-.54-.42-.19-.67-.61-1.07-.86-.25-.23-.54-.4-.88-.54-.21-.1-.44-.23-.52-.46v-.02c.17,.02,.36,.08,.5-.04,0-.04-.04-.08-.06-.13-.1-.13-.19-.23-.29-.34-.17-.13-.38-.19-.52-.34-.21-.25-.29-.61-.52-.84-.13-.13-.34-.1-.46-.21-.29-.19-.5-.46-.73-.71-.13-.13-.19-.29-.27-.42-.04-.04-.1-.02-.15,.02-.1,.08-.17,.19-.25,.29-.06,.1-.04,.23-.04,.36-.1-.02-.27-.06-.34,.06-.06,.17-.06,.4,.02,.57,.21,.4,.23,.88,.4,1.32,.06,.21,.19,.42,.15,.65-.1,.19-.19,.42-.19,.65-.02,.46,0,.94,.08,1.4,.08,.4,.23,.75,.42,1.13,.15,.36,.42,.63,.65,.92,.19,.25,.44,.42,.65,.65,.13,.15,.29,.25,.38,.42,.19,.54,.42,1.07,.73,1.55,.38,.63,.44,1.4,.38,2.12-.02,.06-.02,.19-.13,.19-.21,0-.42-.04-.63-.06-.06,0-.15-.02-.21,.04-.19,.15-.4,.27-.59,.42-.06,.04-.15,.02-.21,.02-.34-.02-.67,0-1.01-.06-.13-.02-.25-.02-.38-.08-1.03-.92-1.88-2.03-2.49-3.29C.38,13.65,0,12.12,0,10.59c-.04-2.26,.71-4.52,2.05-6.35C3.23,2.55,4.94,1.27,6.87,.58,7.75,.27,8.67,.08,9.62,.02Z"/><path class="cls-1" d="M8.94,15.22c.21-.23,.52-.34,.82-.31,.13-.02,.27,.04,.36,.15,.04,.06,.06,.15,.1,.21,.17,.42,.31,.86,.54,1.28,.15,.23,.34,.42,.54,.59,.25,.21,.5,.42,.77,.61,.13,.08,.25,.15,.31,.27,.13,.21,.13,.46,.17,.67,0,.1,.06,.23,.02,.34-.08,0-.13-.08-.21-.08-.34,.02-.67,.1-1.01,.13-.1,0-.23,.06-.31,0-.27-.15-.54-.31-.82-.46-.1-.06-.21-.04-.31-.02-.19,.02-.4,.04-.59,.02-.1-.02-.21-.06-.31-.08-.13-.04-.1-.21-.1-.29-.02-.15,.04-.25,.1-.38,.04-.38,0-.75-.02-1.13-.04-.38-.06-.73-.06-1.11-.04-.13-.08-.25,0-.38Z"/><path class="cls-1" d="M7.46,14.95c.13-.06,.31-.04,.36,.1,.19,.71,.29,1.45,.4,2.18,.04,.34,0,.67-.13,.98l-.02,.02c-.25-.04-.5-.1-.75-.17-.08,0-.08-.13-.08-.19,0-.19-.02-.4,.02-.59,.02-.27,0-.54,.04-.8,0-.31,.06-.61,.04-.92-.02-.13-.15-.23-.13-.38,.02-.13,.15-.21,.25-.25Z"/><path class="cls-1" d="M12.88,16.65s.08,0,.13,.02c.31,.13,.63,.27,.94,.44,.1,.06,.19,.17,.27,.25,.27,.36,.5,.73,.71,1.13,.19,.38,.29,.8,.27,1.24-.59-.08-1.15-.23-1.74-.34-.06-.02-.15-.02-.15-.08-.06-.44-.04-.88,.04-1.32,.04-.15-.1-.25-.21-.34-.25-.25-.29-.63-.29-.96l.02-.04Z"/></g></g></svg>