<?xml version="1.0" encoding="UTF-8"?><svg id="Layer_2" xmlns="http://www.w3.org/2000/svg" viewBox="0 0 265.44 32.8"><defs><style>.cls-1{fill:#fff;}.cls-2{fill:#a00;}.cls-3{fill:none;}</style></defs><g id="Layer_1-2"><g><g><path class="cls-1" d="M0,2.48H4.92l4.13,17.48L13.36,2.48h3.52l4.25,17.56L25.33,2.48h4.92l-6.21,25.64h-5.2l-3.76-15.72-3.77,15.72H6.14L0,2.48Z"/><path class="cls-3" d="M42.55,28.5c-1.62,0-3.08-.28-4.37-.84-1.29-.56-2.39-1.31-3.29-2.26-.9-.95-1.59-2.05-2.07-3.29-.48-1.24-.72-2.55-.72-3.91s.24-2.71,.72-3.95c.48-1.24,1.17-2.34,2.07-3.29,.9-.95,1.99-1.7,3.29-2.26,1.29-.56,2.75-.84,4.37-.84s3.07,.28,4.35,.84c1.28,.56,2.37,1.31,3.27,2.26,.9,.95,1.59,2.05,2.07,3.29,.48,1.24,.72,2.56,.72,3.95s-.24,2.67-.72,3.91c-.48,1.24-1.17,2.34-2.05,3.29-.89,.95-1.98,1.7-3.27,2.26-1.29,.56-2.75,.84-4.37,.84Zm-5.21-10.3c0,.89,.13,1.69,.4,2.41,.27,.72,.63,1.35,1.1,1.88,.47,.53,1.02,.94,1.65,1.23,.63,.29,1.32,.44,2.05,.44s1.42-.15,2.05-.44c.63-.29,1.18-.7,1.65-1.23,.47-.53,.84-1.17,1.1-1.9,.27-.73,.4-1.54,.4-2.43s-.13-1.66-.4-2.39c-.27-.73-.63-1.37-1.1-1.9s-1.02-.94-1.65-1.23c-.63-.29-1.32-.44-2.05-.44s-1.42,.15-2.05,.46c-.63,.3-1.18,.72-1.65,1.25-.47,.53-.84,1.17-1.1,1.9-.27,.73-.4,1.53-.4,2.39Z"/><path class="cls-1" d="M57.83,.38h5.09V21.74c0,.73,.18,1.3,.53,1.71,.35,.41,.86,.61,1.52,.61,.3,0,.64-.05,1.01-.15s.72-.23,1.04-.38l.68,3.88c-.68,.33-1.48,.58-2.39,.76-.91,.18-1.74,.27-2.47,.27-1.6,0-2.83-.42-3.71-1.27-.87-.85-1.31-2.06-1.31-3.63V.38Z"/><path class="cls-1" d="M71.12,28.12V13.15h-2.62v-3.88h2.62v-1.22c0-2.48,.59-4.45,1.79-5.89,1.19-1.44,2.81-2.17,4.86-2.17,1.62,0,3.25,.39,4.9,1.18l-1.03,3.84c-.38-.2-.83-.37-1.35-.51-.52-.14-.99-.21-1.42-.21-1.77,0-2.66,1.19-2.66,3.57v1.41h4.86v3.88h-4.86v14.97h-5.09Z"/><path class="cls-2" d="M87.81,32.8V.22h1.15V32.8h-1.15Z"/><path class="cls-1" d="M95.54,28.12V3.98h9.89c1,0,1.92,.22,2.75,.65,.84,.43,1.56,.99,2.18,1.68,.61,.69,1.09,1.48,1.45,2.36,.35,.88,.53,1.78,.53,2.69,0,.95-.16,1.88-.49,2.77-.33,.9-.79,1.69-1.38,2.38-.59,.69-1.29,1.25-2.11,1.67s-1.72,.63-2.72,.63h-8.91v9.32h-1.19Zm1.19-10.4h8.87c.86,0,1.63-.18,2.31-.54,.68-.36,1.26-.84,1.73-1.44,.48-.6,.84-1.28,1.1-2.04,.26-.76,.39-1.54,.39-2.33s-.15-1.6-.46-2.36c-.31-.76-.72-1.43-1.24-2.01-.52-.58-1.13-1.04-1.82-1.39-.69-.35-1.43-.53-2.23-.53h-8.67v12.65Z"/><path class="cls-1" d="M123.18,11.53c-1.63,.07-3.05,.58-4.25,1.55s-2.04,2.27-2.52,3.93v11.12h-1.16V10.44h1.12v4.49c.61-1.25,1.43-2.27,2.45-3.06,1.02-.79,2.11-1.26,3.26-1.39,.23-.02,.44-.03,.63-.03h.46v1.09Z"/><path class="cls-1" d="M132.02,28.46c-1.2,0-2.32-.24-3.35-.73-1.03-.49-1.93-1.14-2.7-1.97-.77-.83-1.37-1.8-1.8-2.91-.43-1.11-.65-2.28-.65-3.5s.22-2.43,.66-3.54c.44-1.11,1.05-2.08,1.82-2.92,.77-.84,1.67-1.5,2.7-1.99,1.03-.49,2.14-.73,3.32-.73s2.29,.24,3.33,.73c1.04,.49,1.95,1.15,2.72,1.99,.77,.84,1.38,1.81,1.82,2.92,.44,1.11,.66,2.29,.66,3.54s-.22,2.39-.66,3.5c-.44,1.11-1.04,2.08-1.8,2.91-.76,.83-1.66,1.48-2.7,1.97-1.04,.49-2.17,.73-3.37,.73Zm-7.34-9.08c0,1.09,.19,2.12,.58,3.09,.38,.98,.91,1.82,1.56,2.55,.66,.73,1.43,1.3,2.33,1.72s1.84,.63,2.84,.63,1.98-.22,2.87-.65c.9-.43,1.68-1.01,2.35-1.73,.67-.73,1.2-1.58,1.58-2.57,.39-.99,.58-2.02,.58-3.11s-.19-2.12-.58-3.11-.91-1.84-1.58-2.57c-.67-.73-1.45-1.3-2.35-1.73s-1.84-.65-2.84-.65-1.94,.22-2.82,.65-1.66,1.01-2.33,1.75c-.67,.74-1.2,1.6-1.6,2.58-.4,.99-.59,2.03-.59,3.15Z"/><path class="cls-1" d="M151.2,28.46c-1.22,0-2.36-.26-3.4-.78-1.04-.52-1.94-1.21-2.7-2.06-.76-.85-1.35-1.82-1.77-2.91-.42-1.09-.63-2.21-.63-3.37,0-1.22,.2-2.39,.61-3.5,.41-1.11,.97-2.09,1.7-2.92,.73-.84,1.59-1.51,2.58-2.01,1-.5,2.09-.75,3.26-.75,.79,0,1.54,.11,2.24,.34,.7,.23,1.35,.54,1.96,.94,.6,.4,1.14,.86,1.63,1.38,.49,.52,.9,1.07,1.24,1.63V3.3h1.16V26.28c0,.5,.2,.75,.61,.75v1.09c-.07,.02-.16,.03-.27,.03-.41,0-.75-.15-1.02-.46-.27-.31-.41-.65-.41-1.04v-2.14c-.36,.59-.8,1.13-1.31,1.62-.51,.49-1.06,.9-1.65,1.24-.59,.34-1.21,.61-1.87,.8-.66,.19-1.31,.29-1.97,.29Zm.14-1.09c.66,0,1.36-.14,2.11-.41,.75-.27,1.44-.64,2.09-1.11,.65-.46,1.19-1.01,1.63-1.63,.44-.62,.7-1.27,.76-1.96v-6.09c-.25-.68-.62-1.32-1.1-1.92-.49-.6-1.05-1.12-1.68-1.56-.64-.44-1.31-.79-2.02-1.05-.71-.26-1.41-.39-2.09-.39-1.09,0-2.07,.23-2.96,.7-.88,.46-1.63,1.08-2.24,1.84-.61,.76-1.09,1.62-1.43,2.58-.34,.96-.51,1.96-.51,2.98s.19,2.08,.58,3.04c.39,.96,.91,1.81,1.58,2.55,.67,.74,1.46,1.33,2.36,1.77,.91,.44,1.88,.66,2.92,.66Z"/><path class="cls-1" d="M169.28,28.46c-1.86,0-3.26-.67-4.22-2.01-.95-1.34-1.43-3.32-1.43-5.95V10.44h1.16v9.93c0,4.67,1.58,7,4.73,7,.79,0,1.58-.14,2.35-.42,.77-.28,1.48-.67,2.12-1.17,.65-.5,1.21-1.1,1.7-1.8,.49-.7,.87-1.47,1.14-2.31V10.44h1.16v15.84c0,.5,.2,.75,.61,.75v1.09c-.09,.02-.2,.03-.34,.03-.36,0-.68-.14-.95-.43-.27-.28-.41-.63-.41-1.04v-2.92c-.77,1.45-1.84,2.6-3.2,3.43-1.36,.84-2.83,1.26-4.42,1.26Z"/><path class="cls-1" d="M181.46,19.21c0-1.27,.21-2.45,.65-3.55,.43-1.1,1.03-2.06,1.8-2.87,.77-.82,1.68-1.46,2.74-1.92,1.05-.46,2.19-.7,3.42-.7,1.54,0,2.91,.36,4.11,1.07,1.2,.71,2.1,1.69,2.69,2.94l-1.12,.41c-.57-1.04-1.36-1.86-2.38-2.45-1.02-.59-2.15-.88-3.4-.88-1.02,0-1.98,.2-2.87,.61-.9,.41-1.68,.97-2.35,1.68-.67,.71-1.19,1.56-1.56,2.53-.37,.98-.56,2.02-.56,3.13s.2,2.16,.59,3.15c.4,.99,.93,1.85,1.6,2.6s1.45,1.34,2.35,1.77c.89,.43,1.84,.65,2.84,.65,.66,0,1.31-.1,1.96-.29,.65-.19,1.24-.45,1.78-.76,.54-.32,1.01-.69,1.41-1.11,.4-.42,.66-.87,.8-1.34l1.16,.34c-.2,.61-.54,1.18-1,1.7-.46,.52-1.01,.97-1.63,1.34-.62,.37-1.31,.67-2.06,.88-.75,.21-1.52,.32-2.31,.32-1.2,0-2.32-.24-3.37-.73-1.04-.49-1.96-1.15-2.74-1.99-.78-.84-1.4-1.82-1.85-2.94-.45-1.12-.68-2.32-.68-3.59Z"/><path class="cls-1" d="M207.6,27.3s-.16,.08-.34,.19-.42,.22-.73,.34c-.31,.12-.66,.23-1.05,.32s-.83,.14-1.31,.14c-.88,0-1.65-.25-2.29-.77-.65-.51-.97-1.23-.97-2.16V11.46h-2.52v-1.02h2.52V4.35h1.16v6.09h4.18v1.02h-4.18v13.74c.05,.66,.29,1.16,.75,1.5,.45,.34,.97,.51,1.56,.51,.36,0,.71-.04,1.04-.12,.33-.08,.62-.17,.87-.27,.25-.1,.45-.2,.61-.29,.16-.09,.25-.15,.27-.17l.44,.95Z"/><path class="cls-1" d="M209.85,6.16V3.3h1.16v2.86h-1.16Zm0,21.96V10.44h1.16V28.12h-1.16Z"/><path class="cls-1" d="M222.94,28.46c-1.2,0-2.32-.24-3.35-.73-1.03-.49-1.93-1.14-2.7-1.97-.77-.83-1.37-1.8-1.8-2.91-.43-1.11-.65-2.28-.65-3.5s.22-2.43,.66-3.54c.44-1.11,1.05-2.08,1.82-2.92,.77-.84,1.67-1.5,2.7-1.99,1.03-.49,2.14-.73,3.32-.73s2.29,.24,3.33,.73c1.04,.49,1.95,1.15,2.72,1.99,.77,.84,1.38,1.81,1.82,2.92,.44,1.11,.66,2.29,.66,3.54s-.22,2.39-.66,3.5c-.44,1.11-1.04,2.08-1.8,2.91-.76,.83-1.66,1.48-2.7,1.97-1.04,.49-2.17,.73-3.37,.73Zm-7.34-9.08c0,1.09,.19,2.12,.58,3.09,.38,.98,.91,1.82,1.56,2.55,.66,.73,1.43,1.3,2.33,1.72s1.84,.63,2.84,.63,1.98-.22,2.87-.65c.9-.43,1.68-1.01,2.35-1.73,.67-.73,1.2-1.58,1.58-2.57,.39-.99,.58-2.02,.58-3.11s-.19-2.12-.58-3.11-.91-1.84-1.58-2.57c-.67-.73-1.45-1.3-2.35-1.73s-1.84-.65-2.84-.65-1.94,.22-2.82,.65-1.66,1.01-2.33,1.75c-.67,.74-1.2,1.6-1.6,2.58-.4,.99-.59,2.03-.59,3.15Z"/><path class="cls-1" d="M248.95,28.12h-1.16v-9.86c0-2.43-.35-4.2-1.04-5.32s-1.79-1.68-3.28-1.68c-.79,0-1.59,.15-2.38,.44-.79,.29-1.52,.7-2.19,1.22-.67,.52-1.26,1.13-1.77,1.84-.51,.7-.88,1.47-1.1,2.31v11.05h-1.16V10.44h1.12v4.42c.36-.7,.82-1.34,1.36-1.92,.54-.58,1.16-1.07,1.84-1.48,.68-.41,1.4-.73,2.16-.95,.76-.23,1.54-.34,2.33-.34,1.86,0,3.2,.66,4.03,1.99,.83,1.33,1.24,3.31,1.24,5.97v10Z"/><path class="cls-1" d="M258.77,28.46c-1.36,0-2.63-.23-3.81-.68-1.18-.45-2.22-1.16-3.13-2.11l.65-.78c.95,.86,1.93,1.51,2.92,1.94,1,.43,2.11,.65,3.33,.65,1.65,0,2.99-.35,4.01-1.05,1.02-.7,1.53-1.69,1.53-2.96,0-.59-.13-1.08-.39-1.48-.26-.4-.64-.74-1.14-1.02-.5-.28-1.12-.53-1.85-.75-.74-.22-1.58-.44-2.53-.66-.97-.23-1.82-.45-2.53-.66-.71-.22-1.31-.47-1.78-.77-.48-.29-.83-.67-1.05-1.12-.23-.45-.34-1.03-.34-1.73,0-.88,.17-1.64,.51-2.28,.34-.63,.8-1.16,1.38-1.58,.58-.42,1.25-.73,2.01-.94,.76-.2,1.57-.31,2.43-.31,1.43,0,2.66,.24,3.69,.71,1.03,.48,1.79,1.08,2.26,1.8l-.78,.58c-.5-.68-1.23-1.2-2.19-1.56-.96-.36-1.99-.54-3.08-.54-.7,0-1.36,.07-1.97,.22-.61,.15-1.15,.39-1.62,.71s-.83,.74-1.1,1.24c-.27,.5-.41,1.09-.41,1.77,0,.54,.09,1,.27,1.36,.18,.36,.47,.66,.87,.9,.4,.24,.9,.44,1.5,.61s1.33,.36,2.19,.56c1.09,.25,2.05,.5,2.89,.75s1.55,.54,2.14,.88c.59,.34,1.04,.76,1.34,1.26,.31,.5,.46,1.13,.46,1.9s-.16,1.5-.48,2.12c-.32,.62-.77,1.16-1.34,1.61-.58,.45-1.28,.8-2.11,1.04-.83,.24-1.74,.36-2.74,.36Z"/></g><g><path class="cls-1" d="M41.83,7.98c.5-.02,1.01-.02,1.49,0,1.13,.06,2.24,.31,3.29,.73,2.35,.94,4.29,2.79,5.42,5.05,.69,1.4,1.09,2.97,1.09,4.54,.04,2.18-.65,4.38-1.93,6.16-.75,1.05-1.68,1.97-2.76,2.66h-.02c-.36-.44-.61-.94-.75-1.51-.1-.34-.17-.67-.23-1.01-.08-.21-.34-.21-.48-.34-.25-.19-.44-.5-.44-.84,.04-.02,.08-.02,.13,.02,.08,.1,.15,.25,.27,.34,.31,.27,.73,.38,1.15,.36,.29-.04,.61,0,.88-.1,.52-.19,.92-.59,1.36-.92,.17-.1,.29-.23,.44-.36,0-.02,.02-.04,.02-.04-.1-.02-.19,.02-.29,.04-.27,.04-.52,.08-.8,.13-.4,.06-.8,.08-1.19,.06-.15-.02-.29-.02-.42-.06-.31-.1-.52-.31-.71-.52-.42-.48-.71-1.03-1.07-1.53-.19-.25-.38-.48-.67-.61-.19-.08-.38-.13-.57-.15-.08,0-.13-.08-.19-.13-.15-.15-.36-.19-.54-.25-.1-.04-.23-.06-.36-.06-.57-.08-1.13,0-1.68-.15-.23-.06-.42-.21-.63-.34-.27-.19-.54-.4-.82-.54-.42-.19-.67-.61-1.07-.86-.25-.23-.54-.4-.88-.54-.21-.1-.44-.23-.52-.46v-.02c.17,.02,.36,.08,.5-.04,0-.04-.04-.08-.06-.13-.1-.13-.19-.23-.29-.34-.17-.13-.38-.19-.52-.34-.21-.25-.29-.61-.52-.84-.13-.13-.34-.1-.46-.21-.29-.19-.5-.46-.73-.71-.13-.13-.19-.29-.27-.42-.04-.04-.1-.02-.15,.02-.1,.08-.17,.19-.25,.29-.06,.1-.04,.23-.04,.36-.1-.02-.27-.06-.34,.06-.06,.17-.06,.4,.02,.57,.21,.4,.23,.88,.4,1.32,.06,.21,.19,.42,.15,.65-.1,.19-.19,.42-.19,.65-.02,.46,0,.94,.08,1.4,.08,.4,.23,.75,.42,1.13,.15,.36,.42,.63,.65,.92,.19,.25,.44,.42,.65,.65,.13,.15,.29,.25,.38,.42,.19,.54,.42,1.07,.73,1.55,.38,.63,.44,1.4,.38,2.12-.02,.06-.02,.19-.13,.19-.21,0-.42-.04-.63-.06-.06,0-.15-.02-.21,.04-.19,.15-.4,.27-.59,.42-.06,.04-.15,.02-.21,.02-.34-.02-.67,0-1.01-.06-.13-.02-.25-.02-.38-.08-1.03-.92-1.88-2.03-2.49-3.29-.65-1.38-1.03-2.91-1.03-4.44-.04-2.26,.71-4.52,2.05-6.35,1.17-1.7,2.89-2.97,4.82-3.67,.88-.31,1.8-.5,2.74-.57Z"/><path class="cls-1" d="M41.16,23.18c.21-.23,.52-.34,.82-.31,.13-.02,.27,.04,.36,.15,.04,.06,.06,.15,.1,.21,.17,.42,.31,.86,.54,1.28,.15,.23,.34,.42,.54,.59,.25,.21,.5,.42,.77,.61,.13,.08,.25,.15,.31,.27,.13,.21,.13,.46,.17,.67,0,.1,.06,.23,.02,.34-.08,0-.13-.08-.21-.08-.34,.02-.67,.1-1.01,.13-.1,0-.23,.06-.31,0-.27-.15-.54-.31-.82-.46-.1-.06-.21-.04-.31-.02-.19,.02-.4,.04-.59,.02-.1-.02-.21-.06-.31-.08-.13-.04-.1-.21-.1-.29-.02-.15,.04-.25,.1-.38,.04-.38,0-.75-.02-1.13-.04-.38-.06-.73-.06-1.11-.04-.13-.08-.25,0-.38Z"/><path class="cls-1" d="M39.67,22.91c.13-.06,.31-.04,.36,.1,.19,.71,.29,1.45,.4,2.18,.04,.34,0,.67-.13,.98l-.02,.02c-.25-.04-.5-.1-.75-.17-.08,0-.08-.13-.08-.19,0-.19-.02-.4,.02-.59,.02-.27,0-.54,.04-.8,0-.31,.06-.61,.04-.92-.02-.13-.15-.23-.13-.38,.02-.13,.15-.21,.25-.25Z"/><path class="cls-1" d="M45.1,24.61s.08,0,.13,.02c.31,.13,.63,.27,.94,.44,.1,.06,.19,.17,.27,.25,.27,.36,.5,.73,.71,1.13,.19,.38,.29,.8,.27,1.24-.59-.08-1.15-.23-1.74-.34-.06-.02-.15-.02-.15-.08-.06-.44-.04-.88,.04-1.32,.04-.15-.1-.25-.21-.34-.25-.25-.29-.63-.29-.96l.02-.04Z"/></g></g></g></svg>